<svg width="20" height="20" viewBox="0 0 20 20" fill="none" xmlns="http://www.w3.org/2000/svg">
	<path d="M19.7196 1.76665L18.3381 0.40844C17.9642 0.0365062 17.3466 0.0365062 16.9565 0.40844L10.065 7.2648L3.04361 0.279072C2.66961 -0.0930239 2.05198 -0.0930239 1.66205 0.279072L0.280496 1.65361C-0.0934988 2.02554 -0.0934988 2.64004 0.280496 3.02815L7.28579 9.99787L0.410525 16.8706C0.0366925 17.2425 0.0366925 17.857 0.410525 18.2451L1.79208 19.6196C2.16591 19.9916 2.78355 19.9916 3.17364 19.6196L10.065 12.7631L16.9565 19.6196C17.3303 19.9916 17.948 19.9916 18.3381 19.6196L19.7196 18.2451C20.0935 17.8732 20.0935 17.2587 19.7196 16.8706L12.8119 10.014L19.7034 3.15768C20.0935 2.76925 20.0935 2.15475 19.7196 1.76665Z" fill="#269FBF">
	</path>
</svg>
